<?xml version="1.0" standalone="no"?>
<!DOCTYPE svg PUBLIC "-//W3C//DTD SVG 20010904//EN"
 "http://www.w3.org/TR/2001/REC-SVG-20010904/DTD/svg10.dtd">
<svg version="1.0" xmlns="http://www.w3.org/2000/svg"
 width="1133.000000pt" height="1032.000000pt" viewBox="0 0 1133.000000 1032.000000"
 preserveAspectRatio="xMidYMid meet">

<g transform="translate(0.000000,1032.000000) scale(0.100000,-0.100000)"
fill="#000000" stroke="none">
<path d="M6848 10204 c-9 -11 -33 -55 -53 -99 -34 -72 -110 -237 -185 -400
-15 -33 -38 -82 -50 -110 -12 -27 -41 -88 -62 -135 -42 -89 -80 -170 -118
-255 -12 -27 -37 -81 -55 -120 -272 -590 -265 -575 -265 -584 0 -4 -9 -17 -21
-30 -20 -21 -22 -21 -40 -6 -10 10 -46 67 -80 129 -72 130 -128 203 -236 306
-99 96 -131 119 -230 169 -140 71 -365 119 -499 108 -298 -25 -509 -119 -699
-311 -104 -104 -176 -216 -236 -362 -21 -54 -46 -108 -54 -121 -9 -13 -57 -44
-108 -69 -134 -68 -222 -128 -306 -208 -125 -121 -209 -257 -266 -436 -64
-197 -66 -202 -101 -216 -19 -8 -50 -14 -70 -14 -67 0 -114 -21 -142 -62 -23
-36 -25 -44 -19 -127 4 -48 11 -110 16 -137 5 -27 17 -89 26 -139 32 -170 102
-409 170 -575 39 -94 157 -327 206 -407 112 -179 253 -356 400 -502 106 -107
153 -148 305 -266 l120 -94 12 -148 c13 -167 35 -248 83 -306 64 -78 -54 -72
1347 -75 l1253 -3 51 28 c103 56 137 131 139 302 0 58 6 128 12 156 11 46 19
55 101 120 306 242 426 360 590 575 97 127 144 205 241 395 121 235 177 384
230 600 9 39 21 86 26 105 23 85 60 302 66 381 5 72 3 91 -12 116 -26 44 -65
63 -127 63 -29 0 -70 5 -91 11 -43 12 -59 40 -91 159 -69 256 -166 409 -354
560 -127 102 -236 155 -442 215 -82 24 -110 36 -110 49 0 24 354 524 640 906
222 295 310 420 310 441 0 29 -42 67 -84 75 -52 9 -50 12 -252 -277 -21 -30
-122 -169 -224 -308 -183 -250 -288 -397 -432 -600 -131 -187 -216 -280 -255
-281 -59 -1 -34 42 362 619 466 678 594 870 610 912 6 16 -21 33 -80 50 -61
18 -32 55 -522 -663 -175 -257 -352 -517 -393 -578 -121 -180 -295 -421 -338
-470 -30 -33 -43 -42 -52 -34 -15 15 -3 41 505 1079 199 407 278 572 341 715
28 64 31 78 20 94 -15 23 -96 54 -144 55 -32 1 -33 0 -27 -33 7 -37 -7 -73
-136 -346 -75 -160 -536 -1081 -612 -1225 -94 -179 -140 -260 -151 -267 -33
-23 -47 12 -27 64 47 120 70 172 147 337 24 51 44 95 44 96 0 2 27 61 61 132
73 153 89 189 122 268 25 58 81 178 174 375 25 52 58 122 73 155 63 138 85
185 127 275 25 52 53 118 63 145 22 60 18 64 -68 72 -47 4 -60 2 -74 -13z
m-1607 -1227 c242 -91 427 -243 523 -428 51 -101 47 -132 -20 -144 -43 -8 -83
22 -164 124 -125 159 -228 235 -390 288 -80 26 -342 26 -420 -1 -137 -46 -282
-163 -398 -319 -46 -63 -93 -97 -132 -97 -35 0 -50 17 -50 58 0 94 167 314
303 400 205 129 294 154 527 148 135 -4 164 -7 221 -29z m-92 -316 c45 -12 95
-34 128 -57 52 -36 139 -123 171 -172 15 -23 15 -26 -12 -48 -49 -42 -97 -29
-234 64 l-84 57 -127 0 c-141 0 -160 -6 -257 -83 -98 -77 -139 -88 -188 -49
l-29 24 28 51 c63 115 178 190 350 226 56 11 187 5 254 -13z m-61 -331 c42
-26 58 -60 42 -89 -17 -32 -114 -91 -149 -91 -32 0 -101 47 -135 93 -25 34
-17 52 40 84 53 30 154 32 202 3z m743 -104 c95 -14 196 -44 254 -73 184 -95
341 -265 421 -453 58 -137 64 -228 18 -249 -58 -26 -93 -2 -128 87 -66 163
-108 235 -187 314 -138 138 -234 185 -427 209 -85 10 -115 9 -206 -5 -119 -18
-184 -44 -280 -109 -93 -64 -104 -66 -138 -28 -30 33 -44 72 -34 96 9 23 163
119 246 153 101 41 140 51 240 61 124 12 119 12 221 -3z m1284 4 c133 -13 227
-40 308 -87 21 -13 41 -23 44 -23 12 0 111 -77 167 -130 93 -88 174 -218 220
-355 33 -97 34 -147 4 -175 -27 -25 -45 -25 -83 -1 -33 20 -47 44 -95 166 -45
114 -69 152 -142 223 -82 81 -145 126 -238 171 l-75 36 -185 0 c-196 -1 -215
-4 -352 -63 -26 -12 -63 -24 -82 -28 -31 -5 -40 -2 -66 24 -54 55 -36 93 70
149 89 47 155 67 310 92 77 12 73 12 195 1z m-2640 -20 c94 -22 236 -83 298
-128 156 -114 269 -271 330 -459 33 -101 34 -136 5 -163 -48 -44 -110 -14
-142 70 -88 227 -183 356 -321 438 -154 90 -323 120 -500 87 -158 -29 -259
-80 -365 -185 -108 -106 -162 -198 -200 -339 -23 -87 -104 -122 -149 -65 -26
32 -26 49 -2 139 32 124 110 260 206 358 134 137 314 234 480 257 77 11 295 5
360 -10z m-50 -327 c96 -30 169 -75 231 -138 97 -101 154 -230 125 -284 -25
-47 -108 -11 -167 72 -109 152 -205 209 -350 209 -64 0 -85 -4 -137 -30 -81
-41 -163 -113 -189 -168 -41 -87 -123 -130 -170 -87 -68 61 79 290 246 383
140 78 264 91 411 43z m1385 15 c81 -15 194 -75 266 -141 47 -44 73 -78 104
-139 62 -124 53 -178 -28 -178 -40 0 -74 29 -111 95 -49 86 -96 132 -177 171
-66 32 -82 35 -158 35 -124 0 -193 -34 -302 -147 -45 -48 -87 -83 -92 -80 -14
8 -32 96 -32 153 0 43 4 51 48 93 64 61 197 129 287 145 71 12 97 11 195 -7z
m1309 6 c220 -53 403 -222 419 -388 4 -40 1 -52 -13 -63 -50 -36 -112 -4 -159
80 -78 139 -184 207 -325 207 -83 0 -126 -11 -230 -61 -81 -39 -103 -34 -127
26 -23 62 -11 84 73 132 141 79 239 97 362 67z m-3 -345 c17 -5 42 -21 55 -35
34 -36 17 -56 -62 -71 -81 -15 -125 -16 -188 -2 -52 11 -67 28 -51 58 31 59
143 81 246 50z m-2769 0 c37 -14 83 -58 83 -81 0 -30 -34 -38 -162 -38 -144 0
-169 9 -153 56 10 26 51 56 91 67 36 9 113 7 141 -4z m1489 -31 c56 -62 38
-75 -113 -85 -114 -7 -183 8 -183 41 1 58 64 87 178 84 82 -3 84 -4 118 -40z
m2328 -257 c15 -12 17 -24 11 -70 -9 -75 -38 -223 -70 -353 -105 -438 -338
-874 -640 -1197 -74 -79 -261 -237 -374 -316 l-83 -58 -107 -10 c-64 -5 -598
-7 -1358 -3 l-1252 6 -43 27 c-230 147 -515 437 -696 708 -199 298 -358 726
-433 1162 -19 116 -27 112 260 115 130 2 1256 3 2502 3 1963 0 2268 -2 2283
-14z m-1261 -2200 c25 -20 24 -202 -1 -251 -33 -67 18 -64 -1284 -65 l-1168 0
-27 28 c-27 26 -28 33 -31 135 -2 59 1 119 7 134 10 27 13 27 103 31 51 2 609
3 1239 3 956 -1 1149 -3 1162 -15z"/>
<path d="M6640 6757 c-132 -30 -219 -99 -278 -219 -57 -118 -68 -170 -45 -216
20 -41 74 -82 109 -82 47 0 114 84 114 144 0 27 35 84 69 114 41 35 116 54
164 41 22 -6 51 -18 64 -26 36 -24 78 -90 98 -156 30 -96 104 -142 163 -101
26 18 62 84 62 114 0 41 -51 175 -87 227 -80 119 -282 193 -433 160z"/>
<path d="M4444 6751 c-139 -36 -252 -154 -293 -306 -32 -117 13 -205 103 -205
37 0 72 35 95 97 57 150 84 180 178 203 45 12 57 11 95 -4 69 -26 102 -69 148
-187 25 -66 53 -96 98 -105 27 -6 37 -1 68 30 l36 36 -4 94 c-3 85 -7 98 -38
151 -44 72 -119 141 -190 173 -45 20 -74 25 -160 28 -58 2 -119 0 -136 -5z"/>
<path d="M5343 5921 c-50 -31 -56 -111 -16 -192 27 -55 132 -152 202 -187 61
-30 70 -32 175 -32 128 1 160 10 238 68 96 71 156 160 166 248 4 37 1 49 -18
69 -13 13 -38 29 -57 36 -52 17 -86 -3 -148 -86 -43 -58 -65 -78 -110 -101
-54 -26 -60 -27 -104 -15 -58 16 -101 48 -151 117 -65 88 -120 111 -177 75z"/>
<path d="M8536 7122 c-12 -20 -46 -185 -46 -226 0 -61 17 -91 104 -190 345
-391 604 -838 764 -1322 60 -179 129 -452 163 -639 7 -38 17 -76 22 -82 7 -10
153 -13 667 -13 l658 0 10 63 c30 175 26 192 -52 201 -28 3 -240 8 -471 11
-231 3 -453 8 -493 11 -84 7 -86 10 -117 129 -36 140 -86 321 -105 375 -86
250 -141 382 -240 575 -104 202 -96 187 -196 346 -154 243 -327 461 -529 667
-93 93 -125 116 -139 94z"/>
<path d="M2632 6788 c-228 -274 -370 -492 -516 -793 -150 -309 -232 -526 -311
-830 -45 -171 -56 -209 -65 -220 -7 -9 -137 -14 -452 -19 -244 -3 -480 -9
-526 -13 -106 -8 -108 -10 -91 -149 l12 -104 653 0 c360 0 654 2 654 5 0 2 16
82 35 177 56 282 93 412 212 748 9 25 19 50 23 55 4 6 15 33 25 60 17 47 67
146 158 315 51 96 221 353 326 494 45 59 81 118 81 130 0 24 -25 151 -42 211
-12 40 -34 75 -49 75 -5 0 -62 -64 -127 -142z"/>
<path d="M2461 5358 c-7 -11 -11 -87 -11 -203 0 -166 2 -185 18 -193 9 -5 80
-6 157 -3 l140 6 3 29 c2 15 1 39 -3 53 -6 24 -8 24 -89 22 -99 -3 -129 10
-99 43 14 16 27 19 58 15 64 -7 97 4 108 36 15 46 -9 62 -96 62 -65 0 -72 2
-72 20 0 18 8 20 75 23 82 3 100 12 100 51 0 50 -8 52 -148 54 -114 2 -132 0
-141 -15z"/>
<path d="M2939 5368 c-77 -29 -122 -105 -100 -171 18 -54 63 -87 116 -87 58 0
99 -18 84 -37 -15 -17 -67 -16 -99 2 -36 21 -71 18 -104 -8 -25 -20 -27 -26
-17 -44 21 -41 69 -65 136 -71 123 -9 181 20 210 108 15 44 15 51 0 79 -22 43
-58 64 -132 76 -64 10 -78 22 -50 39 10 6 33 4 67 -7 49 -16 54 -16 80 0 16 9
31 25 33 35 14 52 -148 114 -224 86z"/>
<path d="M3249 5360 c-19 -15 -24 -34 -21 -77 2 -19 9 -22 50 -25 32 -2 46 -7
44 -16 -1 -7 -4 -68 -6 -135 -3 -99 -1 -125 12 -139 20 -23 64 -23 92 0 21 17
22 26 22 143 0 68 2 132 5 141 3 12 17 18 51 20 46 3 47 4 50 39 2 21 -2 40
-10 46 -7 6 -71 13 -142 15 -105 3 -132 1 -147 -12z"/>
<path d="M7793 5371 c-54 -7 -86 -28 -109 -73 -20 -38 -18 -47 12 -59 27 -10
94 4 94 19 0 14 42 33 61 27 13 -4 19 -15 19 -34 0 -28 -26 -58 -109 -121 -76
-59 -125 -159 -85 -174 21 -8 184 -8 252 1 63 7 80 28 60 71 -11 22 -20 27
-53 28 -22 0 -46 2 -52 2 -26 4 -10 28 46 74 62 51 74 78 63 146 -5 35 -61 92
-90 92 -9 0 -26 2 -37 4 -11 2 -43 1 -72 -3z m148 -164 c-13 -13 -26 -3 -16
12 3 6 11 8 17 5 6 -4 6 -10 -1 -17z m-141 -137 c0 -5 -4 -10 -10 -10 -5 0
-10 5 -10 10 0 6 5 10 10 10 6 0 10 -4 10 -10z"/>
<path d="M8160 5369 c-73 -29 -107 -112 -98 -239 6 -77 26 -120 70 -152 28
-19 45 -23 109 -23 84 0 105 11 137 70 24 44 23 216 -1 270 -26 58 -70 85
-138 84 -30 0 -65 -5 -79 -10z m108 -112 c21 -43 20 -159 -1 -191 -23 -35 -53
-33 -76 5 -16 27 -19 44 -14 103 3 39 12 81 20 94 19 31 54 25 71 -11z m79
-139 c-3 -8 -6 -5 -6 6 -1 11 2 17 5 13 3 -3 4 -12 1 -19z"/>
<path d="M8593 5371 c-57 -7 -79 -22 -107 -76 -24 -45 -12 -60 45 -59 29 1 48
9 68 28 32 31 56 33 70 8 17 -32 2 -54 -87 -132 -94 -82 -135 -147 -110 -177
11 -13 34 -15 162 -10 156 5 166 8 166 53 0 29 -33 56 -67 53 -69 -5 -85 14
-35 43 15 9 42 32 61 52 29 29 35 44 38 88 3 40 -1 58 -14 74 -44 50 -98 66
-190 55z m157 -156 c0 -8 -7 -15 -16 -15 -14 0 -14 3 -4 15 7 8 14 15 16 15 2
0 4 -7 4 -15z m-153 -147 c-3 -8 -6 -5 -6 6 -1 11 2 17 5 13 3 -3 4 -12 1 -19z"/>
<path d="M8995 5371 c-59 -8 -85 -23 -108 -63 -23 -40 -21 -57 7 -68 31 -11
64 -3 99 27 38 31 65 30 73 -4 9 -35 0 -48 -84 -116 -76 -62 -126 -131 -120
-169 3 -23 4 -23 157 -22 138 0 155 2 167 19 19 26 18 37 -7 64 -13 14 -31 21
-47 20 -46 -4 -62 1 -62 16 0 8 3 15 8 15 17 1 99 88 112 118 27 69 -28 153
-110 164 -19 3 -57 2 -85 -1z m155 -150 c0 -12 -20 -25 -27 -18 -7 7 6 27 18
27 5 0 9 -4 9 -9z m-154 -158 c-10 -10 -19 5 -10 18 6 11 8 11 12 0 2 -7 1
-15 -2 -18z"/>
<path d="M3643 5071 c-36 -23 -47 -49 -38 -91 8 -37 34 -52 75 -44 35 8 50 34
50 89 0 24 -7 39 -22 49 -28 20 -26 20 -65 -3z"/>
<path d="M3777 4352 l-37 -3 2 -202 c3 -194 4 -202 23 -202 11 0 26 -8 33 -17
7 -10 25 -18 40 -18 15 0 34 -4 42 -10 9 -5 19 -5 27 2 9 7 17 7 28 -2 19 -16
19 -16 36 45 16 58 15 325 -1 356 -6 10 -23 21 -38 25 -15 3 -36 9 -47 14 -27
12 -63 16 -108 12z"/>
<path d="M2344 4298 c-24 -22 -78 -92 -121 -156 -42 -65 -112 -164 -154 -222
-42 -58 -87 -123 -99 -145 -12 -22 -32 -53 -45 -70 -12 -16 -26 -41 -30 -55
-4 -14 -17 -38 -29 -55 -69 -97 -65 -118 35 -230 44 -49 112 -137 151 -195 39
-58 87 -123 107 -145 20 -22 63 -76 96 -119 57 -76 127 -160 181 -218 23 -25
30 -27 77 -22 29 3 86 8 127 12 80 8 120 24 120 47 0 8 -8 30 -17 48 -29 53
-181 264 -232 320 -26 28 -85 99 -132 155 -46 57 -103 127 -127 155 -72 87
-74 91 -60 123 6 16 28 54 48 84 21 30 56 87 79 125 44 73 86 132 144 200 18
22 55 72 82 110 26 39 57 81 69 95 35 40 57 80 50 91 -6 10 -50 34 -144 80
-25 12 -65 23 -89 24 -39 2 -50 -3 -87 -37z"/>
<path d="M6890 4330 c-14 -4 -50 -20 -80 -35 -30 -15 -91 -43 -135 -63 -83
-36 -106 -38 -287 -28 -26 1 -52 -1 -59 -4 -13 -9 -8 -319 11 -620 14 -235 16
-444 6 -641 -6 -122 -5 -155 9 -202 l16 -57 60 0 c34 0 73 7 89 15 16 8 52 17
80 18 28 2 54 7 59 13 5 5 13 119 18 254 l8 245 30 8 c17 5 66 26 110 47 44
21 124 60 178 85 109 52 125 70 107 118 -7 18 -15 41 -20 52 -23 63 -51 115
-62 117 -73 8 -117 4 -162 -17 -156 -71 -189 -85 -192 -82 -4 4 -22 158 -29
258 l-7 86 100 41 c124 51 227 98 306 137 69 34 80 60 52 117 -9 17 -16 43
-16 58 0 16 -12 38 -33 58 -28 28 -40 32 -82 31 -28 0 -61 -4 -75 -9z"/>
<path d="M7348 4293 c-10 -24 -13 -56 -19 -183 0 -8 4 -33 10 -55 6 -24 11
-175 11 -385 0 -190 5 -374 10 -409 6 -41 5 -81 -1 -110 -6 -31 -6 -90 1 -176
5 -72 10 -154 9 -184 0 -76 8 -103 42 -129 24 -20 32 -22 44 -12 12 10 18 10
30 0 13 -10 19 -10 33 4 10 9 28 16 40 16 36 0 100 30 116 55 13 20 16 62 16
249 l0 225 29 20 c42 30 60 26 79 -17 9 -20 27 -51 40 -69 12 -17 22 -34 22
-37 0 -3 13 -27 29 -53 37 -60 103 -180 142 -258 35 -70 51 -90 100 -127 24
-17 40 -23 49 -18 9 5 20 4 27 -2 10 -8 19 -6 36 9 12 10 41 31 65 46 65 42
71 77 30 162 -88 180 -113 225 -264 477 -19 31 -34 62 -34 70 1 12 103 90 170
128 14 8 39 27 55 42 28 26 29 29 16 64 -7 21 -13 66 -13 101 l0 63 -72 52
c-39 28 -116 95 -171 148 -55 52 -134 124 -175 160 -41 35 -87 76 -102 89 -22
20 -36 25 -72 22 -43 -2 -152 21 -188 40 -10 5 -43 9 -73 9 -51 0 -56 -2 -67
-27z m462 -488 c89 -89 103 -108 94 -123 -6 -9 -45 -39 -86 -67 -41 -27 -87
-61 -104 -73 l-29 -24 -6 24 c-17 57 -4 368 15 368 6 0 58 -47 116 -105z"/>
<path d="M745 4276 c-11 -25 -14 -117 -15 -396 0 -200 -2 -366 -5 -368 -2 -2
-35 59 -73 135 -38 76 -88 169 -111 208 -22 38 -41 75 -41 82 0 6 -20 52 -44
101 -24 50 -48 103 -54 119 -5 15 -26 46 -45 69 -31 35 -40 40 -75 39 -21 0
-50 -8 -63 -16 -13 -9 -51 -19 -84 -23 -39 -4 -65 -13 -75 -24 -13 -16 -14
-77 -8 -478 4 -252 9 -502 12 -554 3 -52 7 -167 9 -255 3 -88 8 -167 10 -175
3 -8 8 -27 11 -42 l6 -27 83 5 c45 2 100 8 122 14 22 5 51 11 65 12 l25 3 0
300 c0 165 -4 328 -8 363 -7 69 0 78 24 29 9 -18 40 -76 68 -130 28 -54 51
-104 51 -111 0 -7 8 -30 19 -52 47 -100 119 -263 142 -322 6 -19 31 -53 53
-76 36 -38 46 -43 81 -40 72 4 156 21 167 32 7 7 22 12 34 12 13 0 26 6 31 13
4 6 6 356 4 777 -2 731 -3 766 -21 784 -17 17 -36 20 -150 22 l-132 2 -13 -32z"/>
<path d="M3261 4298 c-11 -3 -36 -27 -56 -51 -43 -52 -316 -451 -360 -527 -16
-29 -45 -78 -63 -109 -50 -87 -72 -134 -72 -158 0 -21 25 -54 108 -143 18 -19
58 -73 90 -120 31 -47 86 -121 122 -165 36 -44 88 -109 115 -145 46 -61 101
-128 160 -193 24 -27 30 -28 78 -23 29 3 88 9 132 13 90 9 105 15 105 45 0 31
-139 233 -257 375 -57 67 -103 127 -103 133 0 6 25 10 59 10 58 0 60 1 88 40
15 21 40 44 54 50 23 10 28 20 34 67 6 48 4 60 -14 84 -12 15 -21 31 -21 34 0
10 -83 129 -98 141 -25 18 -85 8 -149 -24 -35 -18 -63 -30 -63 -27 0 28 102
189 183 290 13 17 48 64 76 106 28 42 62 88 74 101 33 35 57 75 57 93 0 9 -19
25 -42 36 -24 11 -56 28 -73 36 -63 34 -71 36 -108 37 -21 1 -46 -2 -56 -6z
m-127 -892 c31 -46 56 -88 56 -92 0 -11 -65 62 -99 111 -23 33 -31 65 -16 65
2 0 28 -38 59 -84z"/>
<path d="M8844 4266 c-63 -62 -416 -588 -444 -660 -5 -15 -21 -42 -35 -60 -13
-17 -27 -50 -31 -73 -6 -39 -4 -44 42 -95 27 -29 51 -55 54 -58 16 -15 111
-143 142 -190 19 -31 60 -85 90 -120 30 -36 76 -94 103 -130 45 -60 99 -125
159 -192 22 -25 29 -28 78 -23 242 22 238 21 238 58 0 30 -129 217 -260 377
l-110 135 65 3 c62 3 65 4 92 42 15 22 33 40 39 40 21 0 42 35 49 81 6 39 3
53 -17 85 -13 22 -28 46 -33 55 -24 39 -69 104 -79 114 -17 17 -87 11 -126
-10 -45 -25 -90 -45 -90 -40 0 17 44 99 75 140 21 27 50 68 64 90 42 64 142
201 193 265 26 32 50 70 54 84 6 23 2 28 -37 46 -24 11 -53 27 -63 35 -11 8
-27 15 -36 15 -9 0 -22 6 -28 13 -7 6 -34 12 -60 13 -42 0 -52 -4 -88 -40z
m-80 -873 c30 -46 52 -83 48 -83 -4 0 -14 8 -22 18 -8 9 -34 40 -58 68 -23 28
-42 61 -42 74 0 30 4 26 74 -77z"/>
<path d="M4883 4284 c-3 -8 -2 -94 1 -191 14 -409 18 -703 10 -703 -9 0 -56
67 -137 195 -24 39 -60 89 -79 112 -20 23 -54 75 -76 115 -22 40 -49 81 -60
91 -11 10 -26 44 -33 78 -13 59 -24 70 -47 47 -8 -8 -15 -9 -20 -3 -4 6 -16
15 -27 21 -16 9 -21 26 -27 94 -4 45 -9 89 -12 96 -4 10 -24 14 -65 14 -50 0
-62 -4 -71 -19 -6 -13 -8 -84 -5 -198 12 -432 14 -1035 4 -1166 -6 -76 -8
-148 -5 -161 7 -30 75 -66 122 -66 47 0 138 21 179 41 35 17 33 -6 41 344 3
138 9 253 13 257 4 5 24 -22 45 -60 22 -37 81 -130 131 -207 51 -77 105 -164
120 -193 15 -29 39 -61 53 -70 32 -21 51 -68 45 -110 -7 -45 10 -62 63 -62 47
0 65 17 114 108 13 23 29 42 36 42 6 0 15 8 19 18 14 34 16 1109 3 1227 -7 61
-13 143 -13 184 0 70 -1 75 -28 91 -16 10 -61 20 -103 24 -42 3 -81 9 -87 13
-22 14 -98 11 -104 -3z"/>
<path d="M1479 4268 c-44 -27 -229 -216 -229 -235 0 -24 46 -61 91 -73 24 -7
54 -16 67 -21 35 -14 110 -11 141 5 28 15 191 182 191 196 0 4 -12 18 -27 31
-15 13 -46 44 -69 68 -36 37 -49 44 -87 46 -31 3 -54 -3 -78 -17z"/>
<path d="M10989 4273 c-27 -3 -39 -11 -48 -29 -7 -17 -11 -122 -11 -324 0
-298 0 -299 -22 -306 -12 -3 -53 -21 -92 -39 -89 -41 -263 -101 -271 -93 -4 3
-2 57 3 120 9 120 -1 568 -16 628 l-8 35 -89 -1 c-85 0 -186 -21 -207 -42 -5
-5 -9 -300 -10 -683 0 -658 5 -801 32 -834 16 -19 152 -4 210 23 19 9 45 15
57 13 11 -1 24 3 28 10 4 6 9 93 10 193 1 101 7 193 13 208 9 22 24 31 84 49
40 12 78 25 83 29 6 3 30 12 55 19 25 7 64 20 87 28 24 8 46 12 50 10 5 -3 9
-128 11 -279 1 -154 7 -287 13 -306 l11 -32 61 5 c109 10 131 13 181 28 26 7
52 20 57 29 10 18 -10 1507 -20 1528 -6 12 -31 15 -112 16 -57 1 -120 -1 -140
-3z"/>
<path d="M9742 4259 c-28 -11 -116 -92 -314 -289 -185 -183 -210 -217 -193
-257 5 -10 7 -26 6 -37 -3 -22 62 -92 142 -152 53 -39 142 -112 171 -140 6 -5
44 -38 84 -73 39 -34 72 -70 72 -80 0 -17 -43 -61 -155 -160 -117 -104 -239
-228 -251 -258 -15 -35 -18 -31 47 -88 69 -62 103 -74 187 -66 7 0 68 55 135
120 67 66 136 130 152 143 67 51 265 254 265 270 0 9 -11 48 -25 86 -25 65
-31 73 -132 158 -59 49 -129 110 -157 135 -28 25 -76 65 -106 89 -30 23 -58
48 -63 56 -7 12 31 52 307 315 81 77 82 69 -20 174 -52 53 -64 60 -97 60 -21
0 -46 -3 -55 -6z"/>
<path d="M1349 3732 c-21 -15 -22 -19 -16 -141 4 -69 12 -173 18 -231 7 -58
12 -226 13 -375 1 -148 4 -277 9 -285 6 -13 29 -14 146 -10 77 3 143 9 148 13
4 5 8 47 9 95 1 48 7 141 14 207 13 135 7 341 -14 485 -16 109 -30 147 -60
156 -12 3 -35 17 -53 30 -17 13 -40 24 -49 24 -10 0 -27 8 -38 19 -29 26 -98
33 -127 13z"/>
<path d="M1958 2300 c-190 -3 -349 -8 -353 -12 -16 -16 41 -102 138 -208 l42
-45 245 -5 c190 -4 250 -8 267 -19 12 -8 48 -56 81 -106 147 -225 465 -583
681 -768 53 -45 98 -84 101 -87 38 -39 342 -260 450 -327 127 -79 493 -273
515 -273 3 0 24 -9 48 -20 116 -55 465 -166 627 -200 278 -59 422 -82 692
-110 143 -15 514 -12 648 5 169 21 259 34 315 45 28 6 95 19 150 30 196 38
513 128 620 175 17 7 72 29 122 49 111 44 333 155 460 230 138 81 367 235 463
313 297 237 620 567 790 808 130 184 172 236 196 245 14 6 137 10 274 10 l248
0 52 58 c62 69 127 161 132 188 3 19 -15 19 -852 26 -911 8 -6570 6 -7152 -2z
m1592 -352 c273 -212 614 -432 850 -545 204 -99 187 -93 570 -198 92 -25 258
-56 390 -71 167 -20 692 -23 810 -5 129 20 364 68 465 96 50 13 110 29 135 36
62 17 177 60 286 107 300 131 524 273 971 615 l61 47 359 0 c197 0 368 -3 381
-6 14 -4 22 -14 22 -29 0 -59 -297 -409 -512 -603 -355 -321 -798 -598 -1193
-744 -401 -148 -715 -216 -1160 -249 -165 -12 -517 -1 -680 21 -38 6 -104 15
-145 21 -117 16 -301 54 -425 89 -114 31 -148 41 -214 65 -540 192 -1036 507
-1462 926 -116 115 -290 319 -346 407 -39 60 -37 81 8 93 13 4 182 7 374 8
l350 1 105 -82z m1292 53 c13 -11 33 -38 43 -60 11 -22 25 -41 32 -41 6 0 22
19 35 42 29 53 65 72 119 63 53 -9 51 -32 -9 -103 -82 -97 -86 -106 -83 -204
2 -87 2 -88 -24 -98 -27 -10 -71 -4 -92 13 -9 6 -13 38 -13 91 0 77 -2 84 -37
136 -20 30 -49 70 -65 88 -46 54 -33 92 33 92 21 0 47 -8 61 -19z m557 -7 c79
-33 111 -87 111 -186 0 -52 -6 -72 -31 -116 -46 -81 -111 -112 -205 -97 -37 5
-56 16 -93 53 -39 39 -49 57 -59 104 -19 97 19 185 107 244 30 20 44 23 85 18
27 -3 65 -12 85 -20z m434 6 c146 -42 173 -250 47 -364 -114 -103 -290 -27
-317 137 -9 57 21 140 67 183 71 68 98 74 203 44z m447 0 c85 -23 137 -114
124 -217 -20 -146 -147 -230 -272 -178 -81 35 -115 90 -116 190 -1 60 3 77 27
118 18 30 47 60 75 78 49 32 72 33 162 9z m465 -9 c81 -36 111 -98 103 -209
-14 -191 -252 -262 -355 -106 -29 45 -41 123 -27 177 17 63 35 90 92 132 43
33 51 35 97 30 28 -4 68 -14 90 -24z"/>
<path d="M4901 1794 c0 -11 3 -14 6 -6 3 7 2 16 -1 19 -3 4 -6 -2 -5 -13z"/>
<path d="M4900 1716 c0 -9 5 -16 10 -16 6 0 10 4 10 9 0 6 -4 13 -10 16 -5 3
-10 -1 -10 -9z"/>
<path d="M5278 1886 c-10 -7 -25 -29 -33 -49 -20 -48 0 -100 46 -116 66 -23
108 30 89 113 -13 59 -61 83 -102 52z"/>
<path d="M5431 1854 c0 -11 3 -14 6 -6 3 7 2 16 -1 19 -3 4 -6 -2 -5 -13z"/>
<path d="M5723 1885 c-81 -57 -20 -201 69 -164 34 14 49 59 36 109 -16 61 -62
85 -105 55z"/>
<path d="M5875 1861 c-3 -5 -1 -12 5 -16 5 -3 10 1 10 9 0 18 -6 21 -15 7z"/>
<path d="M6159 1874 c-53 -56 -20 -157 51 -157 48 0 65 24 64 90 -1 46 -6 61
-24 75 -31 25 -62 22 -91 -8z"/>
<path d="M6320 1854 c0 -8 5 -12 10 -9 6 4 8 11 5 16 -9 14 -15 11 -15 -7z"/>
<path d="M6618 1886 c-10 -7 -25 -29 -33 -49 -14 -33 -13 -40 2 -71 21 -45 63
-62 103 -41 33 17 43 51 31 105 -14 62 -61 88 -103 56z"/>
<path d="M6770 1854 c0 -8 5 -12 10 -9 6 4 8 11 5 16 -9 14 -15 11 -15 -7z"/>
</g>
</svg>
