<?xml version="1.0" encoding="UTF-8" standalone="no"?>
<!-- Created with Inkscape (http://www.inkscape.org/) -->

<svg
   width="63.5mm"
   height="63.5mm"
   viewBox="0 0 63.5 63.5"
   version="1.1"
   id="svg1"
   xml:space="preserve"
   inkscape:version="1.3-dev (77bc73e, 2022-05-18)"
   sodipodi:docname="Picnic_logo.svg"
   xmlns:inkscape="http://www.inkscape.org/namespaces/inkscape"
   xmlns:sodipodi="http://sodipodi.sourceforge.net/DTD/sodipodi-0.dtd"
   xmlns="http://www.w3.org/2000/svg"
   xmlns:svg="http://www.w3.org/2000/svg"><sodipodi:namedview
     id="namedview1"
     pagecolor="#505050"
     bordercolor="#eeeeee"
     borderopacity="1"
     inkscape:showpageshadow="0"
     inkscape:pageopacity="0"
     inkscape:pagecheckerboard="0"
     inkscape:deskcolor="#505050"
     inkscape:document-units="mm"
     showgrid="false"
     inkscape:zoom="0.51403419"
     inkscape:cx="672.13429"
     inkscape:cy="172.16754"
     inkscape:window-width="1626"
     inkscape:window-height="997"
     inkscape:window-x="54"
     inkscape:window-y="25"
     inkscape:window-maximized="1"
     inkscape:current-layer="layer1" /><defs
     id="defs1" /><g
     inkscape:label="Ebene 1"
     inkscape:groupmode="layer"
     id="layer1"
     transform="translate(-59.995626,-125.64442)"><g
       id="g1"
       transform="matrix(0.26458333,0,0,0.26458333,73.958778,123.64074)"><rect
         style="fill:#ffffff"
         id="rect1"
         width="204.63623"
         height="186.49323"
         x="-34.387699"
         y="29.730375" /><path
         d="M -52.774117,7.5729679 H 187.22588 V 247.57297 H -52.774117 Z M 128.02788,202.39197 c 6.72363,-1.20636 13.342,-3.97318 18.3954,-8.63956 1.04282,-2.51189 -1.82104,-4.56964 -2.65278,-6.7865 -1.79815,-2.91322 -3.63469,-5.89465 -6.27276,-8.13408 -3.09423,0.004 -5.22304,2.84563 -8.20788,3.40652 -6.8185,2.3949 -15.4676,1.31195 -20.213,-4.56644 -5.6238,-6.79944 -4.70623,-18.3227 2.58475,-23.6009 5.28518,-3.83895 12.5335,-4.0295 18.5247,-1.8841 2.34161,0.73153 5.32032,3.85424 7.22069,0.83291 3.15235,-4.01624 6.1973,-8.2873 7.82622,-13.1781 -1.34433,-2.39096 -4.17943,-3.23261 -6.39657,-4.58833 -14.2486,-6.90136 -32.8753,-4.51606 -44.200498,6.80356 -6.5045,6.6376 -9.66272,16.0677 -9.43923,25.2723 -0.30764,10.7236 4.50434,21.578 13.1218,28.0889 7.440988,5.79368 17.176398,7.98701 26.470798,7.2542 1.08267,-0.0468 2.16576,-0.12104 3.23833,-0.2804 z M 6.9418826,201.19343 c 2.07174,-2.11506 0.925232,-5.35318 1.34,-7.98796 0.12488,-8.15744 0.17484,-16.3158 0.26544,-24.4736 6.5095804,10.6063 12.7393004,21.4007 19.5375994,31.8196 2.23925,1.74177 5.31005,0.68344 7.92917,0.97522 3.1449,0.0108 6.31047,0.19752 9.43494,-0.26236 2.82273,-1.59262 1.24838,-5.40147 1.76232,-8.01717 0.1366,-18.5547 0.127,-37.111 -0.12548,-55.6647 1.06386,-3.279 -2.30614,-5.45026 -5.22144,-4.61984 -4.28225,-0.0496 -8.6176,-0.3182 -12.8593,0.3634 -2.60416,1.59385 -0.97232,5.28982 -1.5479,7.81205 -0.15176,8.76339 -0.18492,17.5282 -0.2772,26.2923 -6.323999,-11.1192 -12.901099,-22.0952 -19.3127994,-33.1616 -1.91841,-2.00025 -4.98847,-1.06012 -7.45533004,-1.32698 -3.39389996,-0.0168 -6.81519996,-0.19064 -10.17959996,0.36564 -2.9084296,1.54572 -1.0132396,5.46324 -1.6310096,8.07249 -0.13848,19.5406 -0.05352,39.0818 -0.07716,58.6227 2.0120996,2.31934 5.3761396,1.40881 8.0686896,1.60927 3.45191996,-0.0236 6.91922,0.0392 10.3491,-0.41846 z m 69.0927994,-0.11668 c 1.85342,-2.1413 0.68941,-5.16868 1.08895,-7.7169 0.1492,-13.6902 0.31876,-27.3838 0.0184,-41.0732 -0.4358,-2.13815 0.81288,-6.30447 -2.39714,-6.49763 -4.838,-0.35232 -9.6949,0.0108 -14.5344,-0.13288 -3.45344,-0.0758 -2.74396,4.06708 -2.87211,6.39428 -0.3344,14.4361 -0.29344,28.885 -0.0124,43.3234 -0.0767,2.52394 -0.0728,6.84662 3.62824,6.13408 4.84018,0.1062 9.71089,0.25316 14.5324,-0.20144 l 0.2838,-0.0915 0.26432,-0.13824 z m -4.33675,-64.4555 c 5.32475,-2.31232 7.27112,-9.67098 3.97702,-14.4023 -1.9138,-3.14977 -5.60942,-5.087 -9.29794,-4.64796 -5.31415,0.22168 -9.85938,5.44618 -9.1578,10.7668 0.13524,5.7163 6.09097,10.3285 11.6611,9.17596 0.98395,-0.12068 1.93837,-0.43846 2.81765,-0.89248 z m 57.266498,-13.4951 c 6.43458,-1.43219 12.7669,-4.09412 17.6303,-8.64359 0.26696,-2.7608 -2.05247,-4.82627 -3.18307,-7.13965 -1.73905,-2.68982 -3.38317,-5.53104 -5.85466,-7.630715 -2.6228,-0.16464 -4.42269,2.226765 -6.83705,2.878395 -6.52917,2.79566 -14.9295,2.46116 -20.253,-2.651815 -5.20884,-4.68802 -6.38208,-12.88391 -3.5351,-19.142707 2.68162,-5.8743 9.16569,-9.3298 15.4991,-9.18738 4.35099,-0.02 8.54864,1.48566 12.3049,3.57753 2.98884,0.177 3.96434,-3.58013 5.74,-5.39955 1.83162,-2.72345 3.61105,-5.53604 4.67058,-8.66324 -0.82919,-3.20093 -4.71704,-3.79581 -7.17083,-5.37038 -5.23763,-2.45944 -11.0289,-3.57662 -16.8024,-3.38568 -11.6367,-0.088 -23.581398,5.24336 -30.152998,15.0609 -5.63447,8.25809 -6.90035,18.908097 -5.09846,28.583397 1.80297,9.828765 8.15332,18.772005 17.115198,23.304805 7.89844,4.21208 17.1628,5.21841 25.9276,3.80973 z M 6.7024326,121.84348 c 2.69485,-1.79016 0.861692,-5.49526 1.68759,-8.11959 0.29284,-2.21947 3.9422204,-0.42913 5.5827704,-1.05046 9.30891,-0.24192 19.197899,-2.04971 26.514499,-8.21065 5.65634,-4.960125 8.89427,-12.518705 8.63156,-20.031802 0.17652,-5.43995 -0.32644,-11.0782 -2.96057,-15.9478 -3.63039,-7.16155 -11.0979,-11.5146 -18.7016,-13.3153 -6.264119,-1.69135 -12.792399,-1.73848 -19.2315994,-1.62292 -6.0272,-1e-5 -12.0615,-0.0164 -18.0774,0.40385 -2.5709396,1.63623 -0.9800316,5.27974 -1.5531496,7.802 -0.15268,19.6642 -0.0328,39.329002 -0.06992,58.993502 1.8121696,2.04486 4.8339796,1.30413 7.2514796,1.54033 3.64498996,0.0132 7.30565,0.0411 10.9264,-0.44109 z m 2.05044,-28.270205 c -0.614888,-4.1182 -0.14516,-8.30138 -0.2666,-12.446897 0.02,-2.96507 0.04148,-5.93012 0.06144,-8.89518 5.6698004,0.13832 11.9542004,-0.65283 16.9063004,2.71939 2.698149,1.95447 3.964279,5.38447 3.689919,8.6423 0.0926,4.415497 -3.420239,8.263537 -7.637989,9.190497 -4.03652,1.10302 -8.28052,0.93172 -12.4220004,0.8524 l -0.33108,-0.0626 z M 76.303272,108.88708 c 1.21171,-2.33789 0.58246,-5.0704 0.87588,-7.58994 0.21768,-13.837005 0.2424,-27.678202 -0.0416,-41.514402 -0.13692,-2.31833 0.49224,-6.64424 -3.1721,-6.09966 -4.89766,-0.20976 -9.8085,-0.0308 -14.7021,-0.038 -2.6146,0.94976 -1.6781,4.37342 -1.93917,6.55059 -0.3216,14.8205 -0.26956,29.650297 0.0268,44.470002 0.22012,1.78473 -0.15648,4.62226 2.31483,4.82281 2.48286,0.12248 4.9745,-0.0336 7.46585,0.0388 2.9146,-0.0523 5.88412,0.17888 8.75818,-0.3282 l 0.41353,-0.31192 z"
         fill="#e40613"
         id="path2" /></g></g></svg>
